<svg width="153" height="129" viewBox="0 0 153 129" fill="none" xmlns="http://www.w3.org/2000/svg">
<g clip-path="url(#clip0_2911_745)">
<path d="M153 63.0972V65.7129H148.192C144.076 65.7129 142.018 68.149 142.018 73.0212V114.916C142.018 124.31 137.215 129.006 127.608 129.006H124.173V126.378H128.566C135.704 126.378 139.273 122.566 139.273 114.941V73.0457C139.273 70.5953 139.614 68.684 140.304 67.3914C141.047 66.0575 142.239 65.0326 143.666 64.5C142.236 63.9692 141.043 62.9411 140.304 61.6024C139.614 60.3221 139.273 58.4353 139.273 55.9543V14.0897C139.273 6.46491 135.704 2.65049 128.566 2.64641H124.173V0H127.608C137.211 0 142.014 4.69655 142.018 14.0897V55.9543C142.018 60.7325 144.076 63.1217 148.192 63.1217L153 63.0972ZM4.80146 63.0972C8.92164 63.0972 10.9817 60.7162 10.9817 55.9543V14.0897C10.9817 4.69655 15.7852 0 25.3922 0H28.8271V2.61578H24.4344C17.2962 2.61578 13.7272 6.4404 13.7272 14.0897V55.9543C13.7272 58.4047 13.3855 60.3221 12.6961 61.6024C11.957 62.9411 10.7642 63.9692 9.33448 64.5C10.7603 65.0311 11.9518 66.0537 12.6961 67.3853C13.3855 68.6779 13.7272 70.5586 13.7272 73.0396V114.935C13.7272 122.564 17.2962 126.376 24.4344 126.372H28.8271V128.994H25.3922C15.7852 128.994 10.9817 124.297 10.9817 114.904V73.0457C10.9817 68.1776 8.92164 65.7415 4.80146 65.7374H0V63.0972H4.80146Z" fill="black"/>
<path d="M56.5 50.3115V90H52.5947V50.3115H42.2412V46.5879H66.8535V50.3115H56.5ZM102.921 90V60.2412L102.649 62.0879L92.5678 90H90.5092L80.3373 62.0879L80.0951 60.2412V90H76.1898V46.5879H78.2182L91.3871 82.1895L91.5082 83.7939L91.6293 82.1895L104.768 46.5879H106.827V90H102.921Z" fill="white"/>
</g>
<defs>
<clipPath id="clip0_2911_745">
<rect width="153" height="129" fill="white"/>
</clipPath>
</defs>
</svg>
